Coordinates
version=1
nRows=12
nColumns=24
inDegrees=yes

Units are S.I. units (second, meters, Newtons, ...)
Angles are in degrees.

endheader
time	pelvis_tilt	pelvis_list	pelvis_rotation	pelvis_tx	pelvis_ty	pelvis_tz	hip_flexion_r	hip_adduction_r	hip_rotation_r	knee_angle_r	ankle_angle_r	subtalar_angle_r	mtp_angle_r	hip_flexion_l	hip_adduction_l	hip_rotation_l	knee_angle_l	ankle_angle_l	subtalar_angle_l	mtp_angle_l	lumbar_extension	lumbar_bending	lumbar_rotation
      2.94000000	     -5.01797016	     -6.05473039	     12.43071443	     -2.08897078	     -0.04587229	      0.48107370	     34.33937955	      2.26287712	     -1.21727435	    -12.18990764	      1.60080423	      7.43284014	     -1.30604294	    -10.04172532	     -4.01563388	     10.47614748	    -19.62476317	     12.62639607	     30.69173106	     15.48004453	      1.93568556	      4.41517466	    -16.09372723
      2.94500000	     -4.98027860	     -6.26267045	     12.53473126	     -2.08033503	     -0.04686494	      0.48142214	     34.36922382	      2.47186038	     -1.66304584	    -12.85859517	      1.56168523	      7.66891776	     -0.92910091	    -10.08066133	     -4.48785997	      9.87399164	    -20.44223836	     12.08713273	     31.80376984	     16.00507818	      2.05545781	      4.61896160	    -16.17496878
      2.95000000	     -4.96734312	     -6.48626653	     12.63131645	     -2.07158560	     -0.04785351	      0.48173759	     34.41030956	      2.69426553	     -2.10544068	    -13.56498961	      1.40288679	      7.91883458	     -0.45269329	    -10.05980586	     -4.97922679	      9.23282865	    -21.30581078	     11.45426701	     32.92629877	     16.56090081	      2.22187784	      4.84501753	    -16.23911144
      2.95500000	     -4.96934674	     -6.69729796	     12.73191518	     -2.06280642	     -0.04882439	      0.48204820	     34.45256501	      2.90302958	     -2.51600022	    -14.29920219	      1.12643337	      8.15868832	      0.11460286	     -9.97442360	     -5.46716087	      8.55836174	    -22.23829213	     10.72107385	     34.08574721	     17.14240394	      2.40158477	      5.05615049	    -16.31513063
      2.96000000	     -4.99698745	     -6.92284225	     12.83682100	     -2.05396849	     -0.04977498	      0.48233848	     34.50928053	      3.11980302	     -2.90142345	    -15.04699485	      0.71556973	      8.37950866	      0.74708337	     -9.80987098	     -5.98217601	      7.82971801	    -23.23120408	      9.88372572	     35.27635173	     17.75220783	      2.62211872	      5.28332836	    -16.38311820
      2.96500000	     -5.04511589	     -7.15430930	     12.92303582	     -2.04511638	     -0.05070570	      0.48266836	     34.57405838	      3.35661386	     -3.24422634	    -15.78298266	      0.17773484	      8.54788882	      1.42354322	     -9.56652892	     -6.50771856	      7.08893819	    -24.30604931	      8.91937075	     36.46166892	     18.37903760	      2.85764560	      5.51009723	    -16.44819238
      2.97000000	     -5.11117925	     -7.35708028	     13.00112719	     -2.03629853	     -0.05151989	      0.48293757	     34.61349864	      3.57325817	     -3.45710489	    -16.37487553	     -1.01724309	      8.30436317	      3.33381387	     -9.29435530	     -6.98210939	      6.45628182	    -25.29965193	      7.49716011	     37.38899808	     19.71122649	      3.09948699	      5.72097554	    -16.48659868
      2.97500000	     -5.17236837	     -7.62514595	     13.09720248	     -2.02743464	     -0.05236973	      0.48326330	     34.69231694	      3.84599650	     -3.76570698	    -17.15313347	     -1.54464152	      8.56219073	      3.60691287	     -8.89812994	     -7.58702817	      5.60616183	    -26.55915400	      6.38505041	     38.61478146	     20.03727422	      3.35914437	      5.99306865	    -16.52408778
      2.98000000	     -5.31028795	     -7.90534488	     13.16597880	     -2.01862825	     -0.05316810	      0.48370865	     34.81554235	      4.16991152	     -3.82200624	    -17.78225461	     -2.65526129	      8.20850596	      4.55876509	     -8.37619910	     -8.19026537	      4.85838500	    -27.77501218	      4.82011678	     39.70474045	     21.16265303	      3.68604003	      6.24908729	    -16.59483196
      2.98500000	     -5.39875314	     -8.25204818	     13.23494810	     -2.00981130	     -0.05393111	      0.48408067	     34.93892611	      4.53880224	     -4.10756837	    -18.53626731	     -3.33607666	      8.36832212	      4.76796861	     -7.82286718	     -8.89756799	      4.03146320	    -29.15136004	      3.39834536	     40.80266859	     21.52438758	      3.97882048	      6.60851984	    -16.56663519
      2.99000000	     -5.56470182	     -8.57651834	     13.29645732	     -2.00116086	     -0.05465128	      0.48463244	     35.10912429	      4.94256339	     -4.00870526	    -19.16592080	     -4.45683997	      7.80517154	      5.34716759	     -7.12271667	     -9.56860769	      3.33860099	    -30.49055360	      1.46157742	     41.73253881	     22.78207972	      4.31029105	      6.89889479	    -16.61126263
      2.99500000	     -5.70573718	     -8.96049225	     13.33974289	     -1.99238217	     -0.05530159	      0.48513399	     35.27529034	      5.40323435	     -4.08347432	    -19.83845881	     -5.34081919	      7.47401613	      5.67460542	     -6.41897713	    -10.31430290	      2.66379818	    -31.85325063	     -0.57076957	     42.57208403	     23.69421724	      4.66093366	      7.26958665	    -16.58735189
